/* XPM */
static char * error_xpm[] = {
"32 32 323 2",
"  	c None",
". 	c #A30000",
"+ 	c #AA0000",
"@ 	c #AF0000",
"# 	c #A60000",
"$ 	c #C43232",
"% 	c #E79E9E",
"& 	c #F5D6D6",
"* 	c #F8E0E0",
"= 	c #FDF5F5",
"- 	c #A00000",
"; 	c #CF5757",
"> 	c #F5D5D5",
", 	c #FAE7E7",
"' 	c #F5D1D1",
") 	c #F1BBBB",
"! 	c #F0B6B6",
"~ 	c #EDA6A6",
"{ 	c #F5D0D0",
"] 	c #F5D9D9",
"^ 	c #D15B5B",
"/ 	c #AC0909",
"( 	c #ECB2B2",
"_ 	c #F8DFDF",
": 	c #F0B5B5",
"< 	c #ECA3A3",
"[ 	c #B41A1A",
"} 	c #F3CCCC",
"| 	c #F1BCBC",
"1 	c #EA9F9F",
"2 	c #AB0E0E",
"3 	c #F1C5C5",
"4 	c #EBAAAA",
"5 	c #E99B9B",
"6 	c #E89797",
"7 	c #E28888",
"8 	c #E07D7D",
"9 	c #E48B8B",
"0 	c #E99999",
"a 	c #EA9B9B",
"b 	c #DF7D7D",
"c 	c #990000",
"d 	c #E5A4A4",
"e 	c #E9A5A5",
"f 	c #E79797",
"g 	c #E69393",
"h 	c #DE7B7B",
"i 	c #D77272",
"j 	c #F6E0E0",
"k 	c #D46565",
"l 	c #E18383",
"m 	c #E79595",
"n 	c #DD7C7C",
"o 	c #E5A5A5",
"p 	c #9A0000",
"q 	c #C14040",
"r 	c #E9A7A7",
"s 	c #E48D8D",
"t 	c #E48A8A",
"u 	c #DC7373",
"v 	c #D56B6B",
"w 	c #FDF7F7",
"x 	c #FFFFFF",
"y 	c #F8E8E8",
"z 	c #D35F5F",
"A 	c #E17A7A",
"B 	c #E78B8B",
"C 	c #E07A7A",
"D 	c #DB7373",
"E 	c #E38A8A",
"F 	c #E38D8D",
"G 	c #980000",
"H 	c #DF8D8D",
"I 	c #E18484",
"J 	c #D46D6D",
"K 	c #F8E7E7",
"L 	c #D35A5A",
"M 	c #DE7171",
"N 	c #DA7373",
"O 	c #E08484",
"P 	c #DE8B8B",
"Q 	c #B63333",
"R 	c #DE7878",
"S 	c #E07878",
"T 	c #D56262",
"U 	c #F5DFDF",
"V 	c #CE4C4C",
"W 	c #DD7878",
"X 	c #DF8484",
"Y 	c #870000",
"Z 	c #C44848",
"` 	c #D66060",
" .	c #DB6D6D",
"..	c #DD6D6D",
"+.	c #D96161",
"@.	c #CF5454",
"#.	c #CE5454",
"$.	c #D76161",
"%.	c #DA6D6D",
"&.	c #D36060",
"*.	c #C24848",
"=.	c #8F0000",
"-.	c #C64848",
";.	c #CE4747",
">.	c #D34D4D",
",.	c #DA5B5B",
"'.	c #DC5E5E",
").	c #D85252",
"!.	c #CD4C4C",
"~.	c #D65252",
"{.	c #DA5E5E",
"].	c #D85B5B",
"^.	c #D04D4D",
"/.	c #CC4747",
"(.	c #C54848",
"_.	c #920000",
":.	c #C74141",
"<.	c #CC3E3E",
"[.	c #CE3E3E",
"}.	c #D23E3E",
"|.	c #D64242",
"1.	c #DA4949",
"2.	c #D94646",
"3.	c #CF4747",
"4.	c #F8E6E6",
"5.	c #D64747",
"6.	c #D74848",
"7.	c #D34141",
"8.	c #C93E3E",
"9.	c #C64141",
"0.	c #C83737",
"a.	c #CA3434",
"b.	c #CE3535",
"c.	c #D23535",
"d.	c #D53434",
"e.	c #D83535",
"f.	c #DA3434",
"g.	c #D73232",
"h.	c #CA3939",
"i.	c #C93939",
"j.	c #D53131",
"k.	c #D73535",
"l.	c #D23434",
"m.	c #CB3535",
"n.	c #C83535",
"o.	c #C43737",
"p.	c #900000",
"q.	c #C52A2A",
"r.	c #CA2B2B",
"s.	c #CD2B2B",
"t.	c #D22B2B",
"u.	c #D52C2C",
"v.	c #D92B2B",
"w.	c #DB2A2A",
"x.	c #D72525",
"y.	c #C93131",
"z.	c #F8E5E5",
"A.	c #C93333",
"B.	c #D42525",
"C.	c #D82A2A",
"D.	c #CA2C2C",
"E.	c #C62C2C",
"F.	c #C02A2A",
"G.	c #890000",
"H.	c #C11F1F",
"I.	c #CA2323",
"J.	c #CE2323",
"K.	c #D22323",
"L.	c #D72323",
"M.	c #D92323",
"N.	c #D51E1E",
"O.	c #CE3333",
"P.	c #CB3333",
"Q.	c #D31E1E",
"R.	c #D62323",
"S.	c #C42323",
"T.	c #BA1F1F",
"U.	c #8A0000",
"V.	c #810000",
"W.	c #B81414",
"X.	c #C81B1B",
"Y.	c #CE1B1B",
"Z.	c #D21B1B",
"`.	c #D71B1B",
" +	c #D41717",
".+	c #CD2F2F",
"++	c #F7E5E5",
"@+	c #CA2F2F",
"#+	c #D11717",
"$+	c #D11B1B",
"%+	c #C31B1B",
"&+	c #B31414",
"*+	c #750000",
"=+	c #AA0A0A",
"-+	c #C91414",
";+	c #CE1414",
">+	c #D31414",
",+	c #D31212",
"'+	c #CC2D2D",
")+	c #F9E5E5",
"!+	c #C92D2D",
"~+	c #CE1212",
"{+	c #C21414",
"]+	c #A60A0A",
"^+	c #930303",
"/+	c #C80E0E",
"(+	c #CE0E0E",
"_+	c #D30E0E",
":+	c #D00E0E",
"<+	c #F5DCDC",
"[+	c #F9E4E4",
"}+	c #D52929",
"|+	c #D42929",
"1+	c #F4DCDC",
"2+	c #CA0E0E",
"3+	c #C10E0E",
"4+	c #920303",
"5+	c #7B0000",
"6+	c #BA0707",
"7+	c #CF0909",
"8+	c #D50909",
"9+	c #D40808",
"0+	c #D24545",
"a+	c #FDF6F6",
"b+	c #DB2727",
"c+	c #E90808",
"d+	c #DA2727",
"e+	c #FCF6F6",
"f+	c #CF4545",
"g+	c #CF0808",
"h+	c #C80909",
"i+	c #B50707",
"j+	c #920101",
"k+	c #CE0505",
"l+	c #D60505",
"m+	c #DB0505",
"n+	c #D70404",
"o+	c #D54343",
"p+	c #DB2626",
"q+	c #EB0404",
"r+	c #F20505",
"s+	c #F10505",
"t+	c #EA0404",
"u+	c #D92626",
"v+	c #D24343",
"w+	c #D20404",
"x+	c #D50505",
"y+	c #CF0505",
"z+	c #C70505",
"A+	c #900101",
"B+	c #730000",
"C+	c #B40101",
"D+	c #D50101",
"E+	c #DC0101",
"F+	c #E00101",
"G+	c #D94242",
"H+	c #F7DBDB",
"I+	c #DC2525",
"J+	c #EC0101",
"K+	c #F30101",
"L+	c #F50101",
"M+	c #F40101",
"N+	c #F20101",
"O+	c #EA0101",
"P+	c #D92525",
"Q+	c #F6DBDB",
"R+	c #D70101",
"S+	c #DB0101",
"T+	c #CE0101",
"U+	c #AF0101",
"V+	c #7C0000",
"W+	c #C60000",
"X+	c #DC0000",
"Y+	c #E20000",
"Z+	c #E50000",
"`+	c #E40000",
" @	c #E40303",
".@	c #EC0000",
"+@	c #F30000",
"@@	c #F60000",
"#@	c #F40000",
"$@	c #F10000",
"%@	c #E90000",
"&@	c #E00303",
"*@	c #DF0000",
"=@	c #E10000",
"-@	c #D50000",
";@	c #C00000",
">@	c #7A0000",
",@	c #7E0000",
"'@	c #CA0000",
")@	c #E60000",
"!@	c #EB0000",
"~@	c #EF0000",
"{@	c #F20000",
"]@	c #F70000",
"^@	c #DB0000",
"/@	c #C40000",
"(@	c #7D0000",
"_@	c #C10000",
":@	c #EA0000",
"<@	c #EE0000",
"[@	c #F50000",
"}@	c #E00000",
"|@	c #BC0000",
"1@	c #6B0000",
"2@	c #D80000",
"3@	c #E80000",
"4@	c #D30000",
"5@	c #950000",
"6@	c #6A0000",
"7@	c #8B0000",
"8@	c #F00000",
"9@	c #E30000",
"0@	c #D90000",
"a@	c #B90000",
"b@	c #5A0000",
"c@	c #4D0000",
"d@	c #570000",
"e@	c #630000",
"f@	c #670000",
"g@	c #6F0000",
"h@	c #4E0000",
"                                                                ",
"                                                                ",
"                          . + @ @ + .                           ",
"                    # $ % & * = = * & % $ #                     ",
"                - ; > , ' ) ! ~ ~ ! ) { , ] ^ -                 ",
"              / ( _ : < < < < < < < < < < : _ ( /               ",
"            [ } | 1 1 1 1 1 1 1 1 1 1 1 1 1 1 | } [             ",
"          2 3 4 5 6 7 8 9 0 a a a a 0 9 b 7 6 5 4 3 2           ",
"        c d e f g h i j k l m 6 6 m l k j i n g f e o p         ",
"        q r s t u v w x y z A B B C z y x w v D E F r q         ",
"      G H I I D J w x x x K L M M L K x x x w J N I O P G       ",
"      Q O R S T U x x x x x K V V K x x x x x U T R W X Q       ",
"    Y Z `  ...+.@.K x x x x x K K x x x x x K #.$. .%.&.*.Y     ",
"    =.-.;.>.,.'.).V K x x x x x x x x x x K !.~.{.].^./.(.=.    ",
"    _.:.<.[.}.|.1.2.3.4.x x x x x x x x 4.;.5.6.7.[.<.8.9._.    ",
"    _.0.a.b.c.d.e.f.g.h.4.x x x x x x 4.i.j.k.d.l.b.m.n.o._.    ",
"    p.q.r.s.t.u.v.w.x.y.z.x x x x x x z.A.B.C.u.t.s.D.E.F.p.    ",
"    G.H.I.J.K.L.M.N.O.z.x x x x x x x x z.P.Q.R.K.J.I.S.T.U.    ",
"    V.W.X.Y.Z.`. +.+z.x x x x x x x x x x ++@+#+$+Y.X.%+&+V.    ",
"    *+=+-+;+>+,+'+z.x x x x x )+)+x x x x x ++!+~+;+-+{+]+*+    ",
"      ^+/+(+_+:+<+x x x x x [+}+|+[+x x x x x 1+2+(+/+3+4+      ",
"      5+6+7+8+9+0+a+x x x [+b+c+c+d+[+x x x e+f+g+7+h+i+5+      ",
"        j+k+l+m+n+o+a+x [+p+q+r+s+t+u+[+x a+v+w+x+y+z+A+        ",
"        B+C+D+E+F+E+G+H+I+J+K+L+M+N+O+P+Q+|.R+S+D+T+U+B+        ",
"          V+W+X+Y+Z+`+ @.@+@@@@@@@#@$@%@&@*@=@X+-@;@>@          ",
"            ,@'@=@)@!@~@{@#@@@]@@@#@{@~@!@)@=@^@/@(@            ",
"              *+_@Z+:@<@$@#@[@@@[@#@$@<@:@Z+}@|@*+              ",
"                1@G 2@.@~@{@+@#@+@{@~@.@3@4@5@1@                ",
"                    6@7@|@X+`+$@8@9@0@a@U.6@b@                  ",
"                      c@d@e@f@g@g@f@e@d@h@                      ",
"                                                                ",
"                                                                "};
